<svg id="Layer_1" enable-background="new 0 0 512 512" height="512" viewBox="0 0 512 512" width="512" xmlns="http://www.w3.org/2000/svg"><g><path d="m296.167 319.2c8.284 0 15-6.716 15-15v-64.267c-2.296-62.506-92.023-62.402-94.267 0v64.267c.738 19.881 29.269 19.866 30 0v-17.134h34.267v17.134c0 8.284 6.716 15 15 15zm-49.267-62.134v-17.133c.824-22.707 33.448-22.699 34.267 0v17.133z"/><path d="m15 319.2h40.167c35.804.021 52.542-44.725 26.097-68.192 14.682-25.442-4.65-58.621-34.13-58.208h-32.134c-8.284 0-15 6.716-15 15v96.4c0 8.284 6.716 15 15 15zm15-96.4h17.133c11.967.377 12.123 17.745 0 18.2h-17.133zm0 48.2h25.167c12.048.429 12.038 17.776 0 18.2h-25.167z"/><path d="m198.7 239.934c0-25.989-21.144-47.134-47.133-47.134h-24.1c-8.284 0-15 6.716-15 15v96.4c.738 19.881 29.269 19.866 30 0v-17.134h2.887l27.74 27.74c5.858 5.858 15.355 5.858 21.213 0 5.858-5.857 5.858-15.355 0-21.213l-15.343-15.344c11.937-8.559 19.736-22.539 19.736-38.315zm-47.133 17.132h-9.1v-34.266h9.1c22.704.864 22.687 33.411 0 34.266z"/><path d="m448.8 192.8h-8.033c-8.284 0-15 6.716-15 15v96.4c0 8.284 6.716 15 15 15h8.033c83.749-3.187 83.686-123.243 0-126.4zm6.967 95.665v-64.93c34.765 7.934 34.741 57.01 0 64.93z"/><path d="m359.366 304.2v-32.859l19.784 39.567c1.355 2.71 6.95 10.23 16.862 7.891 6.771-1.599 11.554-7.642 11.554-14.599v-96.4c-.738-19.881-29.269-19.866-30 0v32.859l-19.784-39.567c-3.11-6.223-10.095-9.489-16.862-7.891-6.771 1.599-11.554 7.642-11.554 14.599v96.4c.738 19.881 29.269 19.866 30 0z"/><path d="m497 353.467h-482c-8.284 0-15 6.716-15 15v64.267c0 8.284 6.716 15 15 15h482c8.284 0 15-6.716 15-15v-64.267c0-8.284-6.716-15-15-15z"/><path d="m497 64.267h-482c-8.284 0-15 6.716-15 15v64.267c0 8.284 6.716 15 15 15h482c8.284 0 15-6.716 15-15v-64.267c0-8.285-6.716-15-15-15z"/></g></svg>