<svg id="Layer_1" height="512" viewBox="0 0 36 36" width="512" xmlns="http://www.w3.org/2000/svg" data-name="Layer 1"><g fill-rule="evenodd"><path d="m27.14 14.57h-18.28a1.14 1.14 0 0 0 -1.14 1.14v11.43a1.14 1.14 0 0 0 1.14 1.14h18.28a1.14 1.14 0 0 0 1.14-1.14v-11.43a1.14 1.14 0 0 0 -1.14-1.14zm-9.71 11.43h-2.29v-2.29h-2.28v2.29h-2.29v-5.71a3.43 3.43 0 0 1 6.86 0zm8-3.43a3.43 3.43 0 0 1 -3.43 3.43h-2.29a1.14 1.14 0 0 1 -1.14-1.14v-6.86a1.14 1.14 0 0 1 1.14-1.14h2.29a3.43 3.43 0 0 1 3.43 3.43z"/><path d="m14 19.14a1.14 1.14 0 0 0 -1.14 1.14v1.14h2.29v-1.13a1.14 1.14 0 0 0 -1.15-1.15z"/><path d="m22 19.14h-1.14v4.57h1.14a1.14 1.14 0 0 0 1.14-1.14v-2.28a1.14 1.14 0 0 0 -1.14-1.15z"/><path d="m32.66 3.34a4.57 4.57 0 0 0 -3.23-1.34h-22.86a4.57 4.57 0 0 0 -4.57 4.57v22.86a4.57 4.57 0 0 0 4.57 4.57h22.86a4.57 4.57 0 0 0 4.57-4.57v-22.86a4.57 4.57 0 0 0 -1.34-3.23zm-20.37 3.23a1.14 1.14 0 1 1 -1.14 1.14 1.14 1.14 0 0 1 1.14-1.14zm-4.57 0a1.14 1.14 0 1 1 -1.15 1.14 1.14 1.14 0 0 1 1.14-1.14zm22.85 20.57a3.43 3.43 0 0 1 -3.43 3.43h-18.28a3.45 3.45 0 0 1 -2.42-1 3.41 3.41 0 0 1 -1-2.42v-11.44a3.43 3.43 0 0 1 3.43-3.43h18.27a3.43 3.43 0 0 1 3.43 3.43z"/></g></svg>