<svg id="Layer_1" viewBox="0 0 64 64" xmlns="http://www.w3.org/2000/svg" data-name="Layer 1"><path d="m56.539978 23.1499023h-6.3399658v-9.2999267c0-3.9300537-3.2000122-7.1199951-7.1300049-7.1199951h-33.9500122c-3.9199829 0-7.1199951 3.1899414-7.1199951 7.1199951v24.0200195c0 3.9300537 3.2000122 7.1300049 7.1199951 7.1300049h3.4100342v6.8499756c0 .3900146.2199707.7399902.5699463.9100342.1400146.0600586.2800293.0899658.4300537.0899658.2299805 0 .4499512-.0799561.6399536-.2299805l9.210022-7.6199951h2.9899902v1.0899658c0 3.0100098 2.4500122 5.460083 5.4500122 5.460083h14.2399902l6.6300049 5.4899902c.1900024.1499023.4099731.2299805.6400146.2299805.1399536 0 .289978-.0300293.4299927-.0900879.3499756-.1699219.5700073-.5200195.5700073-.9099121v-4.7199707h2.2099609c3.0100098 0 5.460022-2.4500732 5.460022-5.460083v-17.4799804c0-3.0100098-2.4500122-5.460083-5.460022-5.460083zm-33.5199585 19.8500977c-.2399902 0-.460022.0799561-.6400146.2299805l-7.8499756 6.5v-5.7299805c0-.5500488-.4500122-1-1-1h-4.4100342c-2.8200073 0-5.1199951-2.3000488-5.1199951-5.1300049v-24.0200195c0-2.8199463 2.2999878-5.1199951 5.1199951-5.1199951h33.9500122c2.8300171 0 5.1300049 2.3000488 5.1300049 5.1199951v24.0200195c0 2.8299561-2.2999878 5.1300049-5.1300049 5.1300049z"/><path d="m37.2299805 33.0799561 2.710022-8.1099854c.4199829-1.2600098.210022-2.5999756-.5599976-3.6799316-.7800293-1.0700684-1.9799805-1.6900635-3.3099976-1.6900635h-4.6500244l.4200439-3.2600098c.0099487-.1199951.0199585-.2399902.0199585-.3399658 0-1.6500244-1.3399658-2.9899902-2.9899902-2.9899902-1.1099854 0-2.1500244.6398926-2.6599731 1.6398926l-3.5 6.9400635c-.1300049.2700195-.3300171.4801025-.5599976.6300049-.1500244-.8699951-.9100342-1.5200195-1.8200073-1.5200195h-5.0400391c-1.0299683 0-1.8599854.8300781-1.8599854 1.8601074v13.0198975c0 1.0300293.8300171 1.8599854 1.8599854 1.8599854h5.0400391c.9199829 0 1.7000122-.6799316 1.8299561-1.5699463h11.210022c1.7600098 0 3.3099976-1.1199951 3.8599854-2.7900391zm-18.4199829-7.3199463c0 .5500488-.4500122 1-1 1s-1-.4499512-1-1v-1.3200684c0-.5499268.4500122-1 1-1s1 .4500732 1 1zm3.3800049-1.3699951c.9899902-.2800293 1.8300171-.9500732 2.3099976-1.9000244l3.5-6.9399414c.1599731-.3300781.5100098-.5400391.8699951-.5400391.5499878 0 .9899902.4399414.9899902.9899902 0 .0500488-.0100098.0999756-.0100098.1199951l-.5499878 4.3499756c-.039978.2900391.0499878.5800781.2399902.7900391.1900024.2199707.460022.3399658.75.3399658h5.7800293c.6799927 0 1.289978.3199463 1.6799927.8599854.2600098.3601074.4000244.7800293.4000244 1.2099609 0 .2200928-.0400391.4400635-.1100464.6600342l-2.7099609 8.1199951c-.2800293.8500977-1.0700073 1.4200439-1.960022 1.4200439h-11.1799927v-9.4799805z"/></svg>